# xmcd CD database file
#
# Track frame offsets:
#	150
#	12261
#	24252
#	39093
#	51215
#	64256
#	77664
#	89675
#	103377
#	118779
#	129432
#	142378
#	155356
#	165061
#	176538
#	188091
#	203244
#	215774
#
# Disc length: 3087 seconds
#
# Revision: 0
# Processed by: cddbd v1.5.1PL0 Copyright (c) Steve Scherf et al.
# Submitted via: CDex 1.60beta1
#
DISCID=f70c0d12
DTITLE=Johnny "Guitar" Watson - The Best of the Modern Years
DYEAR=2005
DGENRE=Blues
TTITLE0=Hot Little Mama
TTITLE1=I Love to Love You
TTITLE2=Don't Touch Me
TTITLE3=Too Tired
TTITLE4=Those Lonely, Lonely Nights
TTITLE5=Someone Cares for Me
TTITLE6=Oh Baby
TTITLE7=Give a Little
TTITLE8=Three Hours Past Midnight
TTITLE9=Ruben
TTITLE10=Love Me, Baby
TTITLE11=She Moves Me
TTITLE12=Love Bandit (aka Gangster of Love)
TTITLE13=Lonely Girl
TTITLE14=Ain't Gonna Hush
TTITLE15=Hot Little Mama No. 2 [Take 1][Take]
TTITLE16=I Love to Love You [Take 1][Take]
TTITLE17=Three Hours Past Midnight [Take 2][Take]
EXTD=YEAR: 2005
EXTT0=
EXTT1=
EXTT2=
EXTT3=
EXTT4=
EXTT5=
EXTT6=
EXTT7=
EXTT8=
EXTT9=
EXTT10=
EXTT11=
EXTT12=
EXTT13=
EXTT14=
EXTT15=
EXTT16=
EXTT17=
PLAYORDER=
